<mxfile host="app.diagrams.net" agent="Mozilla/5.0 (Windows NT 10.0; Win64; x64) AppleWebKit/537.36 (KHTML, like Gecko) Chrome/128.0.0.0 Safari/537.36 OPR/114.0.0.0" version="25.0.3">
  <diagram name="Page-1" id="ATqdmzWeELwhIMq4261D">
    <mxGraphModel dx="1240" dy="537" grid="0" gridSize="10" guides="1" tooltips="1" connect="1" arrows="1" fold="1" page="0" pageScale="1" pageWidth="850" pageHeight="1100" math="0" shadow="0">
      <root>
        <mxCell id="0" />
        <mxCell id="1" parent="0" />
        <mxCell id="9FZc6gnEWJcnSI5CrjKz-33" value="" style="rounded=0;whiteSpace=wrap;html=1;dashed=1;dashPattern=8 8;" vertex="1" parent="1">
          <mxGeometry x="554" y="151" width="178" height="461" as="geometry" />
        </mxCell>
        <mxCell id="9FZc6gnEWJcnSI5CrjKz-22" value="" style="rounded=0;whiteSpace=wrap;html=1;dashed=1;dashPattern=8 8;" vertex="1" parent="1">
          <mxGeometry x="174" y="151" width="363" height="462" as="geometry" />
        </mxCell>
        <mxCell id="9FZc6gnEWJcnSI5CrjKz-14" value="X" style="rounded=0;whiteSpace=wrap;html=1;dashed=1;dashPattern=8 8;" vertex="1" parent="1">
          <mxGeometry x="-20" y="152" width="178" height="373" as="geometry" />
        </mxCell>
        <mxCell id="9FZc6gnEWJcnSI5CrjKz-24" style="edgeStyle=orthogonalEdgeStyle;rounded=0;orthogonalLoop=1;jettySize=auto;html=1;entryX=0;entryY=0.5;entryDx=0;entryDy=0;" edge="1" parent="1" source="9FZc6gnEWJcnSI5CrjKz-1" target="9FZc6gnEWJcnSI5CrjKz-4">
          <mxGeometry relative="1" as="geometry">
            <mxPoint x="351" y="107" as="targetPoint" />
          </mxGeometry>
        </mxCell>
        <mxCell id="9FZc6gnEWJcnSI5CrjKz-42" style="edgeStyle=orthogonalEdgeStyle;rounded=0;orthogonalLoop=1;jettySize=auto;html=1;entryX=0;entryY=0.5;entryDx=0;entryDy=0;" edge="1" parent="1" source="9FZc6gnEWJcnSI5CrjKz-1" target="9FZc6gnEWJcnSI5CrjKz-3">
          <mxGeometry relative="1" as="geometry">
            <Array as="points">
              <mxPoint x="351" y="84" />
              <mxPoint x="-11" y="84" />
              <mxPoint x="-11" y="251" />
            </Array>
          </mxGeometry>
        </mxCell>
        <mxCell id="9FZc6gnEWJcnSI5CrjKz-43" style="edgeStyle=orthogonalEdgeStyle;rounded=0;orthogonalLoop=1;jettySize=auto;html=1;entryX=0;entryY=0.5;entryDx=0;entryDy=0;" edge="1" parent="1" source="9FZc6gnEWJcnSI5CrjKz-1" target="9FZc6gnEWJcnSI5CrjKz-2">
          <mxGeometry relative="1" as="geometry">
            <Array as="points">
              <mxPoint x="351" y="84" />
              <mxPoint x="-11" y="84" />
              <mxPoint x="-11" y="354" />
            </Array>
          </mxGeometry>
        </mxCell>
        <mxCell id="9FZc6gnEWJcnSI5CrjKz-49" style="edgeStyle=orthogonalEdgeStyle;rounded=0;orthogonalLoop=1;jettySize=auto;html=1;entryX=0;entryY=0.5;entryDx=0;entryDy=0;" edge="1" parent="1" source="9FZc6gnEWJcnSI5CrjKz-1" target="9FZc6gnEWJcnSI5CrjKz-13">
          <mxGeometry relative="1" as="geometry" />
        </mxCell>
        <mxCell id="9FZc6gnEWJcnSI5CrjKz-50" style="edgeStyle=orthogonalEdgeStyle;rounded=0;orthogonalLoop=1;jettySize=auto;html=1;entryX=0;entryY=0.5;entryDx=0;entryDy=0;" edge="1" parent="1" source="9FZc6gnEWJcnSI5CrjKz-1" target="9FZc6gnEWJcnSI5CrjKz-9">
          <mxGeometry relative="1" as="geometry" />
        </mxCell>
        <mxCell id="9FZc6gnEWJcnSI5CrjKz-62" style="edgeStyle=orthogonalEdgeStyle;rounded=0;orthogonalLoop=1;jettySize=auto;html=1;entryX=0;entryY=0.5;entryDx=0;entryDy=0;" edge="1" parent="1" source="9FZc6gnEWJcnSI5CrjKz-1" target="9FZc6gnEWJcnSI5CrjKz-61">
          <mxGeometry relative="1" as="geometry" />
        </mxCell>
        <mxCell id="9FZc6gnEWJcnSI5CrjKz-1" value="&lt;b&gt;&lt;font style=&quot;font-size: 25px;&quot;&gt;Website bán giày&lt;/font&gt;&lt;/b&gt;" style="rounded=0;whiteSpace=wrap;html=1;" vertex="1" parent="1">
          <mxGeometry x="234" y="1" width="234" height="60" as="geometry" />
        </mxCell>
        <mxCell id="9FZc6gnEWJcnSI5CrjKz-21" style="edgeStyle=orthogonalEdgeStyle;rounded=0;orthogonalLoop=1;jettySize=auto;html=1;" edge="1" parent="1" source="9FZc6gnEWJcnSI5CrjKz-2" target="9FZc6gnEWJcnSI5CrjKz-12">
          <mxGeometry relative="1" as="geometry" />
        </mxCell>
        <mxCell id="9FZc6gnEWJcnSI5CrjKz-26" style="edgeStyle=orthogonalEdgeStyle;rounded=0;orthogonalLoop=1;jettySize=auto;html=1;entryX=0;entryY=0.5;entryDx=0;entryDy=0;" edge="1" parent="1" source="9FZc6gnEWJcnSI5CrjKz-2" target="9FZc6gnEWJcnSI5CrjKz-6">
          <mxGeometry relative="1" as="geometry" />
        </mxCell>
        <mxCell id="9FZc6gnEWJcnSI5CrjKz-64" style="edgeStyle=orthogonalEdgeStyle;rounded=0;orthogonalLoop=1;jettySize=auto;html=1;entryX=0;entryY=0.5;entryDx=0;entryDy=0;" edge="1" parent="1" source="9FZc6gnEWJcnSI5CrjKz-2" target="9FZc6gnEWJcnSI5CrjKz-8">
          <mxGeometry relative="1" as="geometry">
            <Array as="points">
              <mxPoint x="167" y="354" />
              <mxPoint x="167" y="620" />
              <mxPoint x="545" y="620" />
              <mxPoint x="545" y="457" />
            </Array>
          </mxGeometry>
        </mxCell>
        <mxCell id="9FZc6gnEWJcnSI5CrjKz-2" value="Đăng nhập" style="rounded=0;whiteSpace=wrap;html=1;" vertex="1" parent="1">
          <mxGeometry x="9" y="324" width="120" height="60" as="geometry" />
        </mxCell>
        <mxCell id="9FZc6gnEWJcnSI5CrjKz-20" style="edgeStyle=orthogonalEdgeStyle;rounded=0;orthogonalLoop=1;jettySize=auto;html=1;" edge="1" parent="1" source="9FZc6gnEWJcnSI5CrjKz-3" target="9FZc6gnEWJcnSI5CrjKz-2">
          <mxGeometry relative="1" as="geometry" />
        </mxCell>
        <mxCell id="9FZc6gnEWJcnSI5CrjKz-3" value="Đăng ký" style="rounded=0;whiteSpace=wrap;html=1;" vertex="1" parent="1">
          <mxGeometry x="9" y="221" width="120" height="60" as="geometry" />
        </mxCell>
        <mxCell id="9FZc6gnEWJcnSI5CrjKz-53" style="edgeStyle=orthogonalEdgeStyle;rounded=0;orthogonalLoop=1;jettySize=auto;html=1;entryX=0;entryY=0.5;entryDx=0;entryDy=0;" edge="1" parent="1" source="9FZc6gnEWJcnSI5CrjKz-4" target="9FZc6gnEWJcnSI5CrjKz-5">
          <mxGeometry relative="1" as="geometry" />
        </mxCell>
        <mxCell id="9FZc6gnEWJcnSI5CrjKz-65" style="edgeStyle=orthogonalEdgeStyle;rounded=0;orthogonalLoop=1;jettySize=auto;html=1;entryX=0;entryY=0.5;entryDx=0;entryDy=0;" edge="1" parent="1" source="9FZc6gnEWJcnSI5CrjKz-4" target="9FZc6gnEWJcnSI5CrjKz-63">
          <mxGeometry relative="1" as="geometry" />
        </mxCell>
        <mxCell id="9FZc6gnEWJcnSI5CrjKz-4" value="Xem thông tin sản phẩm" style="rounded=0;whiteSpace=wrap;html=1;" vertex="1" parent="1">
          <mxGeometry x="387" y="221" width="120" height="60" as="geometry" />
        </mxCell>
        <mxCell id="9FZc6gnEWJcnSI5CrjKz-5" value="Thêm vào giỏ hàng" style="rounded=0;whiteSpace=wrap;html=1;" vertex="1" parent="1">
          <mxGeometry x="583" y="221" width="120" height="60" as="geometry" />
        </mxCell>
        <mxCell id="9FZc6gnEWJcnSI5CrjKz-28" style="edgeStyle=orthogonalEdgeStyle;rounded=0;orthogonalLoop=1;jettySize=auto;html=1;entryX=0.5;entryY=0;entryDx=0;entryDy=0;" edge="1" parent="1" source="9FZc6gnEWJcnSI5CrjKz-6" target="9FZc6gnEWJcnSI5CrjKz-10">
          <mxGeometry relative="1" as="geometry" />
        </mxCell>
        <mxCell id="9FZc6gnEWJcnSI5CrjKz-58" style="edgeStyle=orthogonalEdgeStyle;rounded=0;orthogonalLoop=1;jettySize=auto;html=1;entryX=0.5;entryY=1;entryDx=0;entryDy=0;" edge="1" parent="1" source="9FZc6gnEWJcnSI5CrjKz-6" target="9FZc6gnEWJcnSI5CrjKz-7">
          <mxGeometry relative="1" as="geometry">
            <Array as="points">
              <mxPoint x="340" y="251" />
              <mxPoint x="340" y="620" />
              <mxPoint x="643" y="620" />
            </Array>
          </mxGeometry>
        </mxCell>
        <mxCell id="9FZc6gnEWJcnSI5CrjKz-6" value="Truy cập profile" style="rounded=0;whiteSpace=wrap;html=1;" vertex="1" parent="1">
          <mxGeometry x="205" y="221" width="120" height="60" as="geometry" />
        </mxCell>
        <mxCell id="9FZc6gnEWJcnSI5CrjKz-7" value="Cập nhật thông tin người dùng" style="rounded=0;whiteSpace=wrap;html=1;" vertex="1" parent="1">
          <mxGeometry x="583" y="530" width="120" height="60" as="geometry" />
        </mxCell>
        <mxCell id="9FZc6gnEWJcnSI5CrjKz-8" value="Thanh toán giỏ hàng" style="rounded=0;whiteSpace=wrap;html=1;" vertex="1" parent="1">
          <mxGeometry x="583" y="427" width="120" height="60" as="geometry" />
        </mxCell>
        <mxCell id="9FZc6gnEWJcnSI5CrjKz-9" value="Xem danh sách sản phẩm" style="rounded=0;whiteSpace=wrap;html=1;" vertex="1" parent="1">
          <mxGeometry x="387" y="427" width="120" height="60" as="geometry" />
        </mxCell>
        <mxCell id="9FZc6gnEWJcnSI5CrjKz-48" style="edgeStyle=orthogonalEdgeStyle;rounded=0;orthogonalLoop=1;jettySize=auto;html=1;" edge="1" parent="1" source="9FZc6gnEWJcnSI5CrjKz-10" target="9FZc6gnEWJcnSI5CrjKz-11">
          <mxGeometry relative="1" as="geometry" />
        </mxCell>
        <mxCell id="9FZc6gnEWJcnSI5CrjKz-10" value="Xem lịch sử đơn hàng" style="rounded=0;whiteSpace=wrap;html=1;" vertex="1" parent="1">
          <mxGeometry x="205" y="324" width="120" height="60" as="geometry" />
        </mxCell>
        <mxCell id="9FZc6gnEWJcnSI5CrjKz-11" value="Xem chi tiết đơn hàng" style="rounded=0;whiteSpace=wrap;html=1;" vertex="1" parent="1">
          <mxGeometry x="205" y="427" width="120" height="60" as="geometry" />
        </mxCell>
        <mxCell id="9FZc6gnEWJcnSI5CrjKz-12" value="Đăng xuất" style="rounded=0;whiteSpace=wrap;html=1;" vertex="1" parent="1">
          <mxGeometry x="9" y="430" width="120" height="60" as="geometry" />
        </mxCell>
        <mxCell id="9FZc6gnEWJcnSI5CrjKz-13" value="Xem giỏ hàng" style="rounded=0;whiteSpace=wrap;html=1;" vertex="1" parent="1">
          <mxGeometry x="387" y="324" width="120" height="60" as="geometry" />
        </mxCell>
        <mxCell id="9FZc6gnEWJcnSI5CrjKz-39" value="&lt;font style=&quot;font-size: 20px;&quot;&gt;Xác thực&lt;/font&gt;" style="text;html=1;align=center;verticalAlign=middle;resizable=0;points=[];autosize=1;strokeColor=none;fillColor=none;" vertex="1" parent="1">
          <mxGeometry x="20" y="153" width="98" height="36" as="geometry" />
        </mxCell>
        <mxCell id="9FZc6gnEWJcnSI5CrjKz-45" value="&lt;span style=&quot;color: rgb(0, 0, 0); font-family: Helvetica; font-size: 20px; font-style: normal; font-variant-ligatures: normal; font-variant-caps: normal; font-weight: 400; letter-spacing: normal; orphans: 2; text-indent: 0px; text-transform: none; widows: 2; word-spacing: 0px; -webkit-text-stroke-width: 0px; white-space: normal; background-color: rgb(255, 255, 255); text-decoration-thickness: initial; text-decoration-style: initial; text-decoration-color: initial; float: none; display: inline !important;&quot;&gt;Xem thông tin&lt;/span&gt;" style="text;whiteSpace=wrap;html=1;align=center;" vertex="1" parent="1">
          <mxGeometry x="280.0000244140625" y="151.00001220703126" width="151" height="46" as="geometry" />
        </mxCell>
        <mxCell id="9FZc6gnEWJcnSI5CrjKz-47" value="&lt;span style=&quot;color: rgb(0, 0, 0); font-family: Helvetica; font-size: 20px; font-style: normal; font-variant-ligatures: normal; font-variant-caps: normal; font-weight: 400; letter-spacing: normal; orphans: 2; text-indent: 0px; text-transform: none; widows: 2; word-spacing: 0px; -webkit-text-stroke-width: 0px; white-space: normal; background-color: rgb(255, 255, 255); text-decoration-thickness: initial; text-decoration-style: initial; text-decoration-color: initial; float: none; display: inline !important;&quot;&gt;Cập nhật thông tin&lt;/span&gt;" style="text;whiteSpace=wrap;html=1;align=center;" vertex="1" parent="1">
          <mxGeometry x="557.75" y="155.5" width="170.5" height="31" as="geometry" />
        </mxCell>
        <mxCell id="9FZc6gnEWJcnSI5CrjKz-61" value="Xem hóa đơn giỏ hàng" style="rounded=0;whiteSpace=wrap;html=1;" vertex="1" parent="1">
          <mxGeometry x="387" y="530" width="120" height="60" as="geometry" />
        </mxCell>
        <mxCell id="9FZc6gnEWJcnSI5CrjKz-63" value="Xóa khỏi giỏ hàng" style="rounded=0;whiteSpace=wrap;html=1;" vertex="1" parent="1">
          <mxGeometry x="583" y="324" width="120" height="60" as="geometry" />
        </mxCell>
      </root>
    </mxGraphModel>
  </diagram>
</mxfile>
